<svg width="211" height="86" viewBox="0 0 211 86" fill="none" xmlns="http://www.w3.org/2000/svg">
<path d="M29.22 52.4C31.66 52.92 33.62 54.14 35.1 56.06C36.58 57.94 37.32 60.1 37.32 62.54C37.32 66.06 36.08 68.86 33.6 70.94C31.16 72.98 27.74 74 23.34 74H3.72V31.88H22.68C26.96 31.88 30.3 32.86 32.7 34.82C35.14 36.78 36.36 39.44 36.36 42.8C36.36 45.28 35.7 47.34 34.38 48.98C33.1 50.62 31.38 51.76 29.22 52.4ZM13.98 48.92H20.7C22.38 48.92 23.66 48.56 24.54 47.84C25.46 47.08 25.92 45.98 25.92 44.54C25.92 43.1 25.46 42 24.54 41.24C23.66 40.48 22.38 40.1 20.7 40.1H13.98V48.92ZM21.54 65.72C23.26 65.72 24.58 65.34 25.5 64.58C26.46 63.78 26.94 62.64 26.94 61.16C26.94 59.68 26.44 58.52 25.44 57.68C24.48 56.84 23.14 56.42 21.42 56.42H13.98V65.72H21.54ZM53.5308 31.88V74H43.2708V31.88H53.5308ZM86.4661 52.4C88.9061 52.92 90.8661 54.14 92.3461 56.06C93.8261 57.94 94.5661 60.1 94.5661 62.54C94.5661 66.06 93.3261 68.86 90.8461 70.94C88.4061 72.98 84.9861 74 80.5861 74H60.9661V31.88H79.9261C84.2061 31.88 87.5461 32.86 89.9461 34.82C92.3861 36.78 93.6061 39.44 93.6061 42.8C93.6061 45.28 92.9461 47.34 91.6261 48.98C90.3461 50.62 88.6261 51.76 86.4661 52.4ZM71.2261 48.92H77.9461C79.6261 48.92 80.9061 48.56 81.7861 47.84C82.7061 47.08 83.1661 45.98 83.1661 44.54C83.1661 43.1 82.7061 42 81.7861 41.24C80.9061 40.48 79.6261 40.1 77.9461 40.1H71.2261V48.92ZM78.7861 65.72C80.5061 65.72 81.8261 65.34 82.7461 64.58C83.7061 63.78 84.1861 62.64 84.1861 61.16C84.1861 59.68 83.6861 58.52 82.6861 57.68C81.7261 56.84 80.3861 56.42 78.6661 56.42H71.2261V65.72H78.7861ZM115.757 74.42C112.677 74.42 109.917 73.92 107.477 72.92C105.037 71.92 103.077 70.44 101.597 68.48C100.157 66.52 99.3969 64.16 99.3169 61.4H110.237C110.397 62.96 110.937 64.16 111.857 65C112.777 65.8 113.977 66.2 115.457 66.2C116.977 66.2 118.177 65.86 119.057 65.18C119.937 64.46 120.377 63.48 120.377 62.24C120.377 61.2 120.017 60.34 119.297 59.66C118.617 58.98 117.757 58.42 116.717 57.98C115.717 57.54 114.277 57.04 112.397 56.48C109.677 55.64 107.457 54.8 105.737 53.96C104.017 53.12 102.537 51.88 101.297 50.24C100.057 48.6 99.4369 46.46 99.4369 43.82C99.4369 39.9 100.857 36.84 103.697 34.64C106.537 32.4 110.237 31.28 114.797 31.28C119.437 31.28 123.177 32.4 126.017 34.64C128.857 36.84 130.377 39.92 130.577 43.88H119.477C119.397 42.52 118.897 41.46 117.977 40.7C117.057 39.9 115.877 39.5 114.437 39.5C113.197 39.5 112.197 39.84 111.437 40.52C110.677 41.16 110.297 42.1 110.297 43.34C110.297 44.7 110.937 45.76 112.217 46.52C113.497 47.28 115.497 48.1 118.217 48.98C120.937 49.9 123.137 50.78 124.817 51.62C126.537 52.46 128.017 53.68 129.257 55.28C130.497 56.88 131.117 58.94 131.117 61.46C131.117 63.86 130.497 66.04 129.257 68C128.057 69.96 126.297 71.52 123.977 72.68C121.657 73.84 118.917 74.42 115.757 74.42ZM147.691 40.1V48.62H161.431V56.54H147.691V65.78H163.231V74H137.431V31.88H163.231V40.1H147.691ZM196.112 66.56H180.392L177.872 74H167.132L182.372 31.88H194.252L209.492 74H198.632L196.112 66.56ZM193.472 58.64L188.252 43.22L183.092 58.64H193.472Z" fill="#3498DB"/>
<path d="M64.0673 20.0628C54.9804 26.8001 44.2038 28.3215 36.867 22.9559C33.0344 20.153 30.6848 15.8967 29.8719 10.9181C31.266 13.0337 32.6882 14.766 34.4129 16.0273C37.9992 18.65 42.9874 19.2407 52.3942 17.2944C58.3182 15.916 62.5655 16.9455 64.0673 20.0628Z" fill="#3498DB"/>
<circle cx="58" cy="19" r="1" fill="black"/>
</svg>
