<svg width="20" height="20" viewBox="0 0 20 20" fill="none" xmlns="http://www.w3.org/2000/svg">
<path d="M1 4.75C1 2.12665 3.01472 0 5.5 0H14.5C16.9853 0 19 2.12665 19 4.75V14.25C19 16.8734 16.9853 19 14.5 19H5.5C3.01472 19 1 16.8734 1 14.25V4.75Z" fill="white"/>
<path d="M14.6514 0C17.6053 0.000110237 19.9999 2.39471 20 5.34863V14.6514C19.9999 17.6053 17.6053 19.9999 14.6514 20H5.34863C2.39471 19.9999 0.000110235 17.6053 0 14.6514V5.34863C0.000110543 2.39471 2.39471 0.00011054 5.34863 0H14.6514ZM6.2793 11.75C5.86522 11.75 5.52952 12.086 5.5293 12.5V16.7861C5.52953 17.2001 5.86523 17.5361 6.2793 17.5361C6.69325 17.536 7.02907 17.2001 7.0293 16.7861V12.5C7.02907 12.0861 6.69326 11.7501 6.2793 11.75ZM13.7207 6.03613C13.3066 6.03626 12.9707 6.372 12.9707 6.78613V16.7861C12.9709 17.2001 13.3067 17.536 13.7207 17.5361C14.1348 17.5361 14.4705 17.2001 14.4707 16.7861V6.78613C14.4707 6.37192 14.1349 6.03613 13.7207 6.03613ZM10 14.25C9.58579 14.25 9.25 14.5858 9.25 15V16C9.25 16.4142 9.58579 16.75 10 16.75C10.4142 16.75 10.75 16.4142 10.75 16V15C10.75 14.5858 10.4142 14.25 10 14.25ZM10 3.25C9.58579 3.25 9.25 3.58579 9.25 4V12C9.25 12.4142 9.58579 12.75 10 12.75C10.4142 12.75 10.75 12.4142 10.75 12V4C10.75 3.58579 10.4142 3.25 10 3.25Z" fill="#3498DB"/>
</svg>
