<svg width="22" height="17" viewBox="0 0 22 17" fill="none" xmlns="http://www.w3.org/2000/svg">
<path d="M17.3887 9.38379C18.3648 9.48296 19.3319 9.69486 20.2686 10.0234C21.0787 10.3077 21.6201 11.0612 21.6201 11.9062V12.8076C21.6201 13.9892 20.5541 14.8976 19.3633 14.7305L19.0898 14.6914C19.0346 14.6837 18.9791 14.6782 18.9238 14.6709C18.9981 14.37 19.04 14.0552 19.04 13.7295V12.6094C19.04 11.3091 18.4067 10.1197 17.3887 9.38379ZM16.1201 1.75C18.0011 1.75025 19.5262 3.24805 19.5264 5.0957C19.5264 6.94351 18.0012 8.44213 16.1201 8.44238C15.652 8.44238 15.2058 8.34848 14.7998 8.18066C15.8404 7.15522 16.4863 5.73069 16.4863 4.1543C16.4863 3.29545 16.2938 2.48197 15.9512 1.75293C16.007 1.75026 16.0636 1.75 16.1201 1.75Z" fill="#3498DB"/>
<path d="M4.23145 9.38379C3.25532 9.48296 2.28819 9.69486 1.35156 10.0234C0.541386 10.3077 0 11.0612 0 11.9062V12.8076C0 13.9892 1.06601 14.8976 2.25684 14.7305L2.53027 14.6914C2.5855 14.6837 2.64102 14.6782 2.69629 14.6709C2.62206 14.37 2.58012 14.0552 2.58008 13.7295V12.6094C2.5801 11.3091 3.21338 10.1197 4.23145 9.38379ZM5.5 1.75C3.61901 1.75025 2.09393 3.24805 2.09375 5.0957C2.09375 6.94351 3.6189 8.44213 5.5 8.44238C5.96812 8.44238 6.41431 8.34848 6.82031 8.18066C5.77969 7.15522 5.1338 5.73069 5.13379 4.1543C5.13379 3.29545 5.32634 2.48197 5.66895 1.75293C5.61315 1.75026 5.55647 1.75 5.5 1.75Z" fill="#3498DB"/>
<path fill-rule="evenodd" clip-rule="evenodd" d="M14.9867 4.15426C14.9867 1.85992 13.1268 0 10.8324 0C8.53811 0 6.67819 1.85992 6.67819 4.15426C6.67819 6.44859 8.53811 8.30851 10.8324 8.30851C13.1268 8.30851 14.9867 6.44859 14.9867 4.15426Z" fill="#3498DB"/>
<path fill-rule="evenodd" clip-rule="evenodd" d="M5.77261 10.2715C9.04463 9.10288 12.6203 9.10288 15.8923 10.2715C16.8803 10.6243 17.5399 11.5603 17.5399 12.6094V13.729C17.5399 15.196 16.2406 16.3229 14.7883 16.1154L14.4548 16.0678C12.0521 15.7245 9.6128 15.7245 7.21011 16.0678L6.87656 16.1154C5.42431 16.3229 4.125 15.196 4.125 13.729V12.6094C4.125 11.5603 4.78455 10.6243 5.77261 10.2715Z" fill="#3498DB"/>
</svg>
